HIERARCHY
ROOT mixamorig:Hips
{
	OFFSET -0.000008 104.274872 1.554316
	CHANNELS 6 Xposition Yposition Zposition Xrotation Yrotation Zrotation
	JOINT mixamorig:Spine
	{
		OFFSET -0.000005 10.181595 0.131519
		CHANNELS 6 Xposition Yposition Zposition Xrotation Yrotation Zrotation
		JOINT mixamorig:Spine1
		{
			OFFSET -0.000000 9.893959 -1.470707
			CHANNELS 6 Xposition Yposition Zposition Xrotation Yrotation Zrotation
			JOINT mixamorig:Spine2
			{
				OFFSET -0.000000 9.220757 -1.370641
				CHANNELS 6 Xposition Yposition Zposition Xrotation Yrotation Zrotation
				JOINT mixamorig:Neck
				{
					OFFSET 0.000001 16.740417 -2.049036
					CHANNELS 6 Xposition Yposition Zposition Xrotation Yrotation Zrotation
					JOINT mixamorig:Head
					{
						OFFSET 0.000000 9.617874 1.685006
						CHANNELS 6 Xposition Yposition Zposition Xrotation Yrotation Zrotation
						JOINT mixamorig:HeadTop_End
						{
							OFFSET 0.000002 22.037354 7.501101
							CHANNELS 6 Xposition Yposition Zposition Xrotation Yrotation Zrotation
							End Site
							{
								OFFSET 0.000168 2310.654297 -282.823242
							}
						}
					}
				}
				JOINT mixamorig:RightShoulder
				{
					OFFSET -4.569970 11.014908 -2.160885
					CHANNELS 6 Xposition Yposition Zposition Xrotation Yrotation Zrotation
					JOINT mixamorig:RightArm
					{
						OFFSET -10.592851 -0.524811 -2.232101
						CHANNELS 6 Xposition Yposition Zposition Xrotation Yrotation Zrotation
						JOINT mixamorig:RightForeArm
						{
							OFFSET -27.841511 0.000031 -0.000004
							CHANNELS 6 Xposition Yposition Zposition Xrotation Yrotation Zrotation
							JOINT mixamorig:RightHand
							{
								OFFSET -28.328831 -0.000015 0.000015
								CHANNELS 6 Xposition Yposition Zposition Xrotation Yrotation Zrotation
								JOINT mixamorig:RightHandThumb1
								{
									OFFSET -2.464806 -1.573990 2.681852
									CHANNELS 6 Xposition Yposition Zposition Xrotation Yrotation Zrotation
									JOINT mixamorig:RightHandThumb2
									{
										OFFSET -3.215179 -1.872803 1.924282
										CHANNELS 6 Xposition Yposition Zposition Xrotation Yrotation Zrotation
										JOINT mixamorig:RightHandThumb3
										{
											OFFSET -2.654831 -1.527969 1.512609
											CHANNELS 6 Xposition Yposition Zposition Xrotation Yrotation Zrotation
											JOINT mixamorig:RightHandThumb4
											{
												OFFSET -2.018814 -1.152008 1.108052
												CHANNELS 6 Xposition Yposition Zposition Xrotation Yrotation Zrotation
												End Site
												{
													OFFSET -188.809540 -114.533607 132.431396
												}
											}
										}
									}
								}
								JOINT mixamorig:RightHandIndex1
								{
									OFFSET -9.108284 -0.517868 2.259835
									CHANNELS 6 Xposition Yposition Zposition Xrotation Yrotation Zrotation
									JOINT mixamorig:RightHandIndex2
									{
										OFFSET -3.699989 0.000000 0.001215
										CHANNELS 6 Xposition Yposition Zposition Xrotation Yrotation Zrotation
										JOINT mixamorig:RightHandIndex3
										{
											OFFSET -2.850006 0.000031 -0.000522
											CHANNELS 6 Xposition Yposition Zposition Xrotation Yrotation Zrotation
											JOINT mixamorig:RightHandIndex4
											{
												OFFSET -2.772186 -0.000015 -0.000020
												CHANNELS 6 Xposition Yposition Zposition Xrotation Yrotation Zrotation
												End Site
												{
													OFFSET -277.218445 0.000000 -0.050231
												}
											}
										}
									}
								}
								JOINT mixamorig:RightHandMiddle1
								{
									OFFSET -9.532516 -0.000031 -0.000023
									CHANNELS 6 Xposition Yposition Zposition Xrotation Yrotation Zrotation
									JOINT mixamorig:RightHandMiddle2
									{
										OFFSET -3.700005 -0.000015 0.003713
										CHANNELS 6 Xposition Yposition Zposition Xrotation Yrotation Zrotation
										JOINT mixamorig:RightHandMiddle3
										{
											OFFSET -2.949974 0.000015 -0.002054
											CHANNELS 6 Xposition Yposition Zposition Xrotation Yrotation Zrotation
											JOINT mixamorig:RightHandMiddle4
											{
												OFFSET -2.946640 0.000000 -0.000156
												CHANNELS 6 Xposition Yposition Zposition Xrotation Yrotation Zrotation
												End Site
												{
													OFFSET -294.664337 0.000000 -0.113670
												}
											}
										}
									}
								}
								JOINT mixamorig:RightHandRing1
								{
									OFFSET -9.103600 -0.043076 -1.865134
									CHANNELS 6 Xposition Yposition Zposition Xrotation Yrotation Zrotation
									JOINT mixamorig:RightHandRing2
									{
										OFFSET -3.379288 0.000000 -0.001055
										CHANNELS 6 Xposition Yposition Zposition Xrotation Yrotation Zrotation
										JOINT mixamorig:RightHandRing3
										{
											OFFSET -2.889687 -0.000015 0.000379
											CHANNELS 6 Xposition Yposition Zposition Xrotation Yrotation Zrotation
											JOINT mixamorig:RightHandRing4
											{
												OFFSET -2.638809 -0.000015 0.000941
												CHANNELS 6 Xposition Yposition Zposition Xrotation Yrotation Zrotation
												End Site
												{
													OFFSET -263.880371 0.000000 0.516020
												}
											}
										}
									}
								}
								JOINT mixamorig:RightHandPinky1
								{
									OFFSET -8.076683 -0.486710 -3.806280
									CHANNELS 6 Xposition Yposition Zposition Xrotation Yrotation Zrotation
									JOINT mixamorig:RightHandPinky2
									{
										OFFSET -3.600014 -0.000015 -0.003747
										CHANNELS 6 Xposition Yposition Zposition Xrotation Yrotation Zrotation
										JOINT mixamorig:RightHandPinky3
										{
											OFFSET -2.099983 0.000000 -0.005739
											CHANNELS 6 Xposition Yposition Zposition Xrotation Yrotation Zrotation
											JOINT mixamorig:RightHandPinky4
											{
												OFFSET -2.115768 -0.000031 -0.003680
												CHANNELS 6 Xposition Yposition Zposition Xrotation Yrotation Zrotation
												End Site
												{
													OFFSET -211.577087 0.000000 -0.350686
												}
											}
										}
									}
								}
							}
						}
					}
				}
				JOINT mixamorig:LeftShoulder
				{
					OFFSET 4.570447 11.014725 -2.160855
					CHANNELS 6 Xposition Yposition Zposition Xrotation Yrotation Zrotation
					JOINT mixamorig:LeftArm
					{
						OFFSET 10.592371 -0.524597 -2.232119
						CHANNELS 6 Xposition Yposition Zposition Xrotation Yrotation Zrotation
						JOINT mixamorig:LeftForeArm
						{
							OFFSET 27.841532 -0.000031 0.000026
							CHANNELS 6 Xposition Yposition Zposition Xrotation Yrotation Zrotation
							JOINT mixamorig:LeftHand
							{
								OFFSET 28.328846 -0.000061 0.000022
								CHANNELS 6 Xposition Yposition Zposition Xrotation Yrotation Zrotation
								JOINT mixamorig:LeftHandThumb1
								{
									OFFSET 2.466141 -1.576172 2.681732
									CHANNELS 6 Xposition Yposition Zposition Xrotation Yrotation Zrotation
									JOINT mixamorig:LeftHandThumb2
									{
										OFFSET 3.217812 -1.872070 1.916482
										CHANNELS 6 Xposition Yposition Zposition Xrotation Yrotation Zrotation
										JOINT mixamorig:LeftHandThumb3
										{
											OFFSET 2.656029 -1.528778 1.514513
											CHANNELS 6 Xposition Yposition Zposition Xrotation Yrotation Zrotation
											JOINT mixamorig:LeftHandThumb4
											{
												OFFSET 2.020889 -1.154053 1.115139
												CHANNELS 6 Xposition Yposition Zposition Xrotation Yrotation Zrotation
												End Site
												{
													OFFSET 190.885437 -115.081749 130.048782
												}
											}
										}
									}
								}
								JOINT mixamorig:LeftHandIndex1
								{
									OFFSET 9.109314 -0.518021 2.259871
									CHANNELS 6 Xposition Yposition Zposition Xrotation Yrotation Zrotation
									JOINT mixamorig:LeftHandIndex2
									{
										OFFSET 3.699989 0.000000 -0.000322
										CHANNELS 6 Xposition Yposition Zposition Xrotation Yrotation Zrotation
										JOINT mixamorig:LeftHandIndex3
										{
											OFFSET 2.850006 0.000000 0.000352
											CHANNELS 6 Xposition Yposition Zposition Xrotation Yrotation Zrotation
											JOINT mixamorig:LeftHandIndex4
											{
												OFFSET 2.774864 -0.000031 -0.000027
												CHANNELS 6 Xposition Yposition Zposition Xrotation Yrotation Zrotation
												End Site
												{
													OFFSET 277.486267 0.000000 -0.009857
												}
											}
										}
									}
								}
								JOINT mixamorig:LeftHandMiddle1
								{
									OFFSET 9.533394 0.000061 0.000044
									CHANNELS 6 Xposition Yposition Zposition Xrotation Yrotation Zrotation
									JOINT mixamorig:LeftHandMiddle2
									{
										OFFSET 3.699989 -0.000015 -0.000231
										CHANNELS 6 Xposition Yposition Zposition Xrotation Yrotation Zrotation
										JOINT mixamorig:LeftHandMiddle3
										{
											OFFSET 2.949997 -0.000015 -0.000059
											CHANNELS 6 Xposition Yposition Zposition Xrotation Yrotation Zrotation
											JOINT mixamorig:LeftHandMiddle4
											{
												OFFSET 2.952896 0.000031 0.000063
												CHANNELS 6 Xposition Yposition Zposition Xrotation Yrotation Zrotation
												End Site
												{
													OFFSET 295.289337 0.000000 0.022810
												}
											}
										}
									}
								}
								JOINT mixamorig:LeftHandRing1
								{
									OFFSET 9.104523 -0.042999 -1.865074
									CHANNELS 6 Xposition Yposition Zposition Xrotation Yrotation Zrotation
									JOINT mixamorig:LeftHandRing2
									{
										OFFSET 3.150009 -0.000031 0.000043
										CHANNELS 6 Xposition Yposition Zposition Xrotation Yrotation Zrotation
										JOINT mixamorig:LeftHandRing3
										{
											OFFSET 2.949982 -0.000015 0.000040
											CHANNELS 6 Xposition Yposition Zposition Xrotation Yrotation Zrotation
											JOINT mixamorig:LeftHandRing4
											{
												OFFSET 2.644348 0.000000 0.000057
												CHANNELS 6 Xposition Yposition Zposition Xrotation Yrotation Zrotation
												End Site
												{
													OFFSET 264.434631 0.000000 0.012105
												}
											}
										}
									}
								}
								JOINT mixamorig:LeftHandPinky1
								{
									OFFSET 8.077789 -0.486847 -3.806259
									CHANNELS 6 Xposition Yposition Zposition Xrotation Yrotation Zrotation
									JOINT mixamorig:LeftHandPinky2
									{
										OFFSET 3.599953 0.000031 0.014727
										CHANNELS 6 Xposition Yposition Zposition Xrotation Yrotation Zrotation
										JOINT mixamorig:LeftHandPinky3
										{
											OFFSET 2.100021 0.000015 0.007705
											CHANNELS 6 Xposition Yposition Zposition Xrotation Yrotation Zrotation
											JOINT mixamorig:LeftHandPinky4
											{
												OFFSET 2.125504 0.000031 0.007517
												CHANNELS 6 Xposition Yposition Zposition Xrotation Yrotation Zrotation
												End Site
												{
													OFFSET 212.550781 0.000000 0.625752
												}
											}
										}
									}
								}
							}
						}
					}
				}
			}
		}
	}
	JOINT mixamorig:RightUpLeg
	{
		OFFSET -8.207787 -6.751648 -1.599560
		CHANNELS 6 Xposition Yposition Zposition Xrotation Yrotation Zrotation
		JOINT mixamorig:RightLeg
		{
			OFFSET -0.000002 -44.370117 0.345942
			CHANNELS 6 Xposition Yposition Zposition Xrotation Yrotation Zrotation
			JOINT mixamorig:RightFoot
			{
				OFFSET 0.000003 -44.423679 -3.043532
				CHANNELS 6 Xposition Yposition Zposition Xrotation Yrotation Zrotation
				JOINT mixamorig:RightToeBase
				{
					OFFSET -0.000002 -8.728671 10.710558
					CHANNELS 6 Xposition Yposition Zposition Xrotation Yrotation Zrotation
					JOINT mixamorig:RightToe_End
					{
						OFFSET -0.000001 -0.000679 9.278119
						CHANNELS 6 Xposition Yposition Zposition Xrotation Yrotation Zrotation
						End Site
						{
							OFFSET 0.000000 -0.067690 927.812134
						}
					}
				}
			}
		}
	}
	JOINT mixamorig:LeftUpLeg
	{
		OFFSET 8.207793 -6.751686 -1.599556
		CHANNELS 6 Xposition Yposition Zposition Xrotation Yrotation Zrotation
		JOINT mixamorig:LeftLeg
		{
			OFFSET -0.000004 -44.370014 0.346954
			CHANNELS 6 Xposition Yposition Zposition Xrotation Yrotation Zrotation
			JOINT mixamorig:LeftFoot
			{
				OFFSET -0.000001 -44.423672 -3.044401
				CHANNELS 6 Xposition Yposition Zposition Xrotation Yrotation Zrotation
				JOINT mixamorig:LeftToeBase
				{
					OFFSET -0.000002 -8.728669 10.710558
					CHANNELS 6 Xposition Yposition Zposition Xrotation Yrotation Zrotation
					JOINT mixamorig:LeftToe_End
					{
						OFFSET -0.000003 -0.000679 9.278133
						CHANNELS 6 Xposition Yposition Zposition Xrotation Yrotation Zrotation
						End Site
						{
							OFFSET 0.000000 -0.068021 927.813477
						}
					}
				}
			}
		}
	}
}
MOTION
Frames: 3
Frame Time: 0.033333
0.000006 104.270477 1.554256 0.000010 0.000003 -0.000113 -0.000005 10.181587 0.131522 0.000001 -0.000003 0.000084 -0.000000 9.893967 -1.470711 0.000001 0.000000 -0.000000 -0.000000 9.220802 -1.370642 0.000000 -0.000000 -0.000000 0.000001 16.740433 -2.049030 0.000000 -0.000000 -0.000000 0.000000 9.617859 1.685014 0.000000 0.000000 0.000000 0.000002 22.037384 7.501101 0.000000 -0.000000 0.000000 -4.569968 11.014880 -2.160881 0.000008 0.000001 -0.000038 -10.592878 -0.524751 -2.231928 72.254058 25.249278 -18.570241 -27.841511 0.000016 0.000543 -52.389842 108.535230 68.729052 -28.328833 0.000005 0.000025 -0.000317 -0.000048 0.000009 -2.464431 -1.573792 2.682350 -43.173878 -163.438736 2.179612 -3.215269 -1.872578 1.924659 154.828108 31.890396 5.369507 -2.654933 -1.527888 1.513081 147.847791 27.128548 -33.458132 -2.018838 -1.152012 1.108055 -0.000002 -0.000002 0.000000 -9.108381 -0.517550 2.260120 98.504578 15.271574 -17.742248 -3.700066 0.000322 0.001494 96.713033 11.543784 -12.944775 -2.850086 0.000378 -0.000260 96.213904 9.604174 -10.699552 -2.772174 -0.000015 -0.000019 -0.000000 0.000001 0.000001 -9.532603 0.000272 0.000205 85.636946 15.874830 -14.855171 -3.700061 0.000329 0.003944 88.525071 10.069868 -9.725070 -2.950036 0.000346 -0.001835 89.968802 10.992646 -10.979657 -2.946620 -0.000012 -0.000155 0.000001 -0.000001 -0.000002 -9.103711 -0.042779 -1.864921 79.164365 19.408628 -16.056400 -3.379333 0.000303 -0.000843 84.600219 11.203038 -10.215722 -2.889779 0.000341 0.000589 87.561912 8.107925 -7.815452 -2.638804 0.000001 0.000944 0.000004 -0.000001 -0.000002 -8.076769 -0.486420 -3.806125 65.011284 19.522135 -12.409111 -3.600065 0.000226 -0.003602 66.665447 12.688840 -8.113134 -2.100032 0.000277 -0.005583 68.380808 8.679910 -5.745462 -2.115781 -0.000042 -0.003675 -0.000001 -0.000000 -0.000004 4.570446 11.014691 -2.160851 -0.000018 0.000010 -0.000021 10.592526 -0.524546 -2.232385 64.300630 -69.100908 46.804831 27.841736 -0.000052 -0.000102 238.068866 -74.319773 252.436306 28.328840 -0.000028 0.000035 0.000021 -0.000089 -0.000000 2.466202 -1.576115 2.681875 33.153448 143.089649 -102.886186 3.217857 -1.871984 1.916533 224.430017 31.752402 -294.573710 2.656094 -1.528611 1.514622 55.967489 179.647116 -143.248601 2.020883 -1.154069 1.115135 0.000006 0.000002 0.000003 9.109184 -0.517844 2.260114 64.710428 -147.373475 130.411998 3.699848 0.000168 -0.000069 67.213276 -146.642427 131.460132 2.849865 0.000198 0.000599 73.305087 -148.019748 137.875647 2.774888 -0.000045 -0.000024 0.000001 -0.000004 -0.000000 9.533516 0.000207 -0.000048 113.596489 -23.794310 35.676134 3.700052 0.000239 -0.000356 106.949889 -9.188721 12.381218 2.950019 0.000237 -0.000219 98.979666 -2.521289 2.953819 2.952877 -0.000030 0.000046 -0.000001 0.000001 -0.000001 9.104630 -0.042782 -1.865174 116.153295 -17.564250 27.856706 3.149973 0.000344 -0.000132 114.930391 5.231509 -8.190393 2.949907 0.000313 -0.000155 109.660552 13.672432 -19.309887 2.644324 0.000017 0.000056 0.000000 0.000001 -0.000003 8.077884 -0.486641 -3.806382 121.398198 -15.903074 28.989307 3.599899 0.000407 0.014592 123.861000 8.270339 -14.798076 2.099864 0.000368 0.007532 122.197207 19.846394 -34.792406 2.125513 -0.000020 0.007505 -0.000001 -0.000002 -0.000000 -8.207786 -6.751667 -1.599560 -0.077001 -0.000003 0.000080 -0.000002 -44.370110 0.345938 0.153719 -0.000000 -0.000000 0.000000 -44.423679 -3.043532 -0.076700 0.000000 -0.000002 -0.000006 -8.728667 10.710559 -0.000009 -0.000000 -0.000000 -0.000001 -0.000679 9.278123 0.000000 -0.000000 -0.000000 8.207792 -6.751710 -1.599556 -0.074518 -0.000003 0.000081 -0.000002 -44.370014 0.346960 0.148822 0.000002 0.000000 -0.000001 -44.423664 -3.044403 -0.074314 0.000000 -0.000002 -0.000004 -8.728671 10.710558 0.000007 -0.000000 -0.000000 0.000000 -0.000680 9.278137 -0.000000 0.000000 -0.000001 
0.000006 104.270477 1.554256 0.000010 0.000003 -0.000113 -0.000005 10.181587 0.131522 0.000001 -0.000003 0.000084 -0.000000 9.893967 -1.470711 0.000001 0.000000 -0.000000 -0.000000 9.220802 -1.370642 0.000000 -0.000000 -0.000000 0.000001 16.740433 -2.049030 0.000000 -0.000000 -0.000000 0.000000 9.617859 1.685014 0.000000 0.000000 0.000000 0.000002 22.037384 7.501101 0.000000 -0.000000 0.000000 -4.569968 11.014880 -2.160881 0.000008 0.000001 -0.000038 -10.592873 -0.524766 -2.231895 72.531220 31.457293 -23.347858 -27.841516 0.000014 0.000540 -52.236778 108.188134 68.208940 -28.328835 0.000005 0.000027 -0.000321 -0.000043 0.000006 -2.464428 -1.573825 2.682359 -42.038428 -162.121042 4.601907 -3.215271 -1.872588 1.924649 154.242269 32.326227 8.591048 -2.654949 -1.527885 1.513075 147.653226 27.101321 -34.061908 -2.018831 -1.151984 1.108062 -0.000001 -0.000002 0.000004 -9.108378 -0.517550 2.260118 97.950548 14.893077 -17.139610 -3.700041 0.000306 0.001502 96.554477 11.504672 -12.865332 -2.850096 0.000375 -0.000258 96.944474 9.757795 -11.010084 -2.772157 0.000001 -0.000022 -0.000002 0.000001 0.000000 -9.532583 0.000263 0.000213 85.732746 16.038667 -15.032517 -3.700044 0.000338 0.003935 88.400283 10.498317 -10.120355 -2.950071 0.000331 -0.001836 90.174821 11.171949 -11.198792 -2.946621 -0.000000 -0.000154 -0.000001 -0.000000 -0.000002 -9.103701 -0.042772 -1.864923 80.041935 19.554179 -16.428280 -3.379337 0.000311 -0.000850 84.885919 11.529762 -10.566065 -2.889763 0.000340 0.000587 87.696303 8.277084 -7.996419 -2.638817 -0.000004 0.000941 0.000001 0.000000 0.000000 -8.076751 -0.486444 -3.806110 65.805116 19.974849 -12.895790 -3.600054 0.000218 -0.003629 66.516426 12.795146 -8.160041 -2.100017 0.000257 -0.005591 67.717685 8.518479 -5.565950 -2.115783 -0.000042 -0.003680 -0.000002 -0.000001 -0.000003 4.570446 11.014691 -2.160851 -0.000018 0.000010 -0.000021 10.592527 -0.524546 -2.232379 66.607868 -71.133333 50.325616 27.841749 -0.000060 -0.000106 238.666726 -75.651872 251.791973 28.328838 -0.000028 0.000011 0.000021 -0.000089 0.000000 2.466223 -1.576098 2.681859 28.777001 151.311243 -105.228169 3.217864 -1.871944 1.916529 219.081487 25.039212 -295.194246 2.656120 -1.528588 1.514618 52.307983 188.933988 -149.165335 2.020883 -1.154062 1.115118 0.000001 0.000002 0.000003 9.109163 -0.517863 2.260099 65.788034 -141.325275 123.034971 3.699849 0.000156 -0.000098 68.469983 -140.236720 124.023681 2.849885 0.000184 0.000600 78.154959 -143.545728 135.851288 2.774889 -0.000030 -0.000023 -0.000001 0.000004 -0.000001 9.533497 0.000224 -0.000047 107.452058 -24.817175 33.365665 3.700047 0.000237 -0.000369 104.598883 -10.909362 14.082788 2.950024 0.000237 -0.000220 97.885722 -3.888196 4.466328 2.952856 -0.000032 0.000084 -0.000000 -0.000001 0.000001 9.104619 -0.042786 -1.865189 111.473851 -18.569645 26.993387 3.149982 0.000340 -0.000132 114.781971 4.197151 -6.554210 2.949886 0.000332 -0.000147 112.452849 13.984484 -20.782601 2.644322 0.000050 0.000054 0.000001 -0.000005 0.000002 8.077869 -0.486630 -3.806369 116.090553 -15.501237 25.545654 3.599894 0.000391 0.014565 121.614455 8.094900 -13.814155 2.099840 0.000340 0.007543 122.828480 22.010423 -38.951138 2.125504 -0.000004 0.007520 -0.000002 -0.000003 0.000000 -8.207786 -6.751667 -1.599560 -0.077001 -0.000003 0.000080 -0.000002 -44.370110 0.345938 0.153719 -0.000000 -0.000000 0.000000 -44.423679 -3.043532 -0.076700 0.000000 -0.000002 -0.000006 -8.728667 10.710559 -0.000009 -0.000000 -0.000000 -0.000001 -0.000679 9.278123 0.000000 -0.000000 -0.000000 8.207792 -6.751710 -1.599556 -0.074518 -0.000003 0.000081 -0.000002 -44.370014 0.346960 0.148822 0.000002 0.000000 -0.000001 -44.423664 -3.044403 -0.074314 0.000000 -0.000002 -0.000004 -8.728671 10.710558 0.000007 -0.000000 -0.000000 0.000000 -0.000680 9.278137 -0.000000 0.000000 -0.000001 
0.000006 104.270477 1.554256 0.000010 0.000003 -0.000113 -0.000005 10.181587 0.131522 0.000001 -0.000003 0.000084 -0.000000 9.893967 -1.470711 0.000001 0.000000 -0.000000 -0.000000 9.220802 -1.370642 0.000000 -0.000000 -0.000000 0.000001 16.740433 -2.049030 0.000000 -0.000000 -0.000000 0.000000 9.617859 1.685014 0.000000 0.000000 0.000000 0.000002 22.037384 7.501101 0.000000 -0.000000 0.000000 -4.569968 11.014880 -2.160881 0.000008 0.000001 -0.000038 -10.592878 -0.524769 -2.231894 72.650441 31.068020 -23.101336 -27.841522 0.000000 0.000546 -52.337960 107.864041 68.011411 -28.328819 0.000021 0.000031 -0.000317 -0.000045 0.000003 -2.464422 -1.573808 2.682362 -44.421136 -164.858596 -0.653124 -3.215283 -1.872599 1.924670 155.428960 31.740791 3.989528 -2.654952 -1.527864 1.513071 148.136954 27.042076 -33.821266 -2.018830 -1.151996 1.108060 -0.000003 -0.000003 0.000000 -9.108381 -0.517544 2.260118 97.992984 15.208050 -17.512694 -3.700077 0.000327 0.001503 96.632656 11.701328 -13.103062 -2.850082 0.000371 -0.000258 96.904340 9.808130 -11.059046 -2.772171 -0.000015 -0.000021 0.000001 0.000000 -0.000000 -9.532581 0.000263 0.000183 85.732664 16.145034 -15.131634 -3.700074 0.000335 0.003937 88.567855 9.974956 -9.639808 -2.950070 0.000338 -0.001822 90.667039 10.951418 -11.071736 -2.946632 -0.000000 -0.000158 -0.000001 -0.000001 0.000000 -9.103699 -0.042777 -1.864930 79.384031 18.933652 -15.720893 -3.379324 0.000318 -0.000840 85.309630 10.606757 -9.792575 -2.889732 0.000343 0.000588 88.549086 8.009276 -7.854657 -2.638801 -0.000000 0.000943 -0.000000 0.000002 0.000003 -8.076747 -0.486438 -3.806118 65.153496 19.297940 -12.297436 -3.600067 0.000228 -0.003628 67.017686 12.492543 -8.037312 -2.100024 0.000268 -0.005579 68.219820 8.585548 -5.664228 -2.115759 -0.000040 -0.003678 -0.000000 -0.000004 -0.000003 4.570446 11.014691 -2.160851 -0.000018 0.000010 -0.000021 10.592529 -0.524542 -2.232379 67.717118 -71.649388 51.684205 27.841742 -0.000071 -0.000104 240.145681 -75.678441 253.405318 28.328833 -0.000044 0.000018 0.000020 -0.000089 -0.000000 2.466220 -1.576094 2.681851 30.539507 147.994422 -104.202725 3.217849 -1.871985 1.916527 221.648504 28.227504 -294.857518 2.656099 -1.528564 1.514620 46.622397 188.958099 -147.283576 2.020899 -1.154078 1.115147 0.000000 0.000001 0.000002 9.109144 -0.517836 2.260087 55.261169 -142.440549 113.986998 3.699852 0.000168 -0.000093 63.330013 -142.934126 122.946451 2.849881 0.000183 0.000596 74.758954 -145.443455 135.694111 2.774889 -0.000030 -0.000030 -0.000000 -0.000004 -0.000001 9.533508 0.000253 -0.000066 110.207841 -21.915680 31.014465 3.700054 0.000236 -0.000365 103.925809 -10.226870 13.047101 2.950040 0.000218 -0.000212 94.227603 -4.275001 4.605171 2.952873 -0.000028 0.000074 -0.000000 -0.000001 0.000000 9.104622 -0.042791 -1.865203 113.336928 -16.861236 25.403289 3.149977 0.000343 -0.000129 113.361852 5.289639 -8.037286 2.949889 0.000321 -0.000163 108.760039 15.134825 -21.008219 2.644318 0.000048 0.000058 0.000000 -0.000000 -0.000000 8.077878 -0.486604 -3.806400 118.162068 -15.101833 25.923319 3.599898 0.000369 0.014565 119.655284 8.584623 -14.120890 2.099827 0.000358 0.007523 118.589159 23.656336 -38.555772 2.125489 -0.000013 0.007521 -0.000001 -0.000000 -0.000000 -8.207786 -6.751667 -1.599560 -0.077001 -0.000003 0.000080 -0.000002 -44.370110 0.345938 0.153719 -0.000000 -0.000000 0.000000 -44.423679 -3.043532 -0.076700 0.000000 -0.000002 -0.000006 -8.728667 10.710559 -0.000009 -0.000000 -0.000000 -0.000001 -0.000679 9.278123 0.000000 -0.000000 -0.000000 8.207792 -6.751710 -1.599556 -0.074518 -0.000003 0.000081 -0.000002 -44.370014 0.346960 0.148822 0.000002 0.000000 -0.000001 -44.423664 -3.044403 -0.074314 0.000000 -0.000002 -0.000004 -8.728671 10.710558 0.000007 -0.000000 -0.000000 0.000000 -0.000680 9.278137 -0.000000 0.000000 -0.000001 
